<?xml version="1.0" encoding="UTF-8" standalone="no"?>
<!-- Created with Inkscape (http://www.inkscape.org/) -->

<svg
   xmlns:dc="http://purl.org/dc/elements/1.1/"
   xmlns:cc="http://creativecommons.org/ns#"
   xmlns:rdf="http://www.w3.org/1999/02/22-rdf-syntax-ns#"
   xmlns:svg="http://www.w3.org/2000/svg"
   xmlns="http://www.w3.org/2000/svg"
   xmlns:sodipodi="http://sodipodi.sourceforge.net/DTD/sodipodi-0.dtd"
   xmlns:inkscape="http://www.inkscape.org/namespaces/inkscape"
   width="453.5433"
   height="340.15747"
   id="svg2"
   sodipodi:version="0.32"
   inkscape:version="0.92.4 (5da689c313, 2019-01-14)"
   sodipodi:docname="drawing.svg"
   version="1.0">
  <defs
     id="defs4">
    <inkscape:path-effect
       effect="simplify"
       id="path-effect141"
       is_visible="true"
       steps="1"
       threshold="0.000408163"
       smooth_angles="360"
       helper_size="0"
       simplify_individual_paths="false"
       simplify_just_coalesce="false"
       simplifyindividualpaths="false"
       simplifyJustCoalesce="false" />
    <inkscape:path-effect
       effect="simplify"
       id="path-effect136"
       is_visible="true"
       steps="1"
       threshold="0.000408163"
       smooth_angles="360"
       helper_size="0"
       simplify_individual_paths="false"
       simplify_just_coalesce="false"
       simplifyindividualpaths="false"
       simplifyJustCoalesce="false" />
    <inkscape:perspective
       sodipodi:type="inkscape:persp3d"
       inkscape:vp_x="0 : 170.07874 : 1"
       inkscape:vp_y="0 : 1000 : 0"
       inkscape:vp_z="453.5433 : 170.07874 : 1"
       inkscape:persp3d-origin="226.77165 : 113.38582 : 1"
       id="perspective132" />
    <inkscape:path-effect
       effect="simplify"
       id="path-effect116"
       is_visible="true"
       steps="1"
       threshold="0.000408163"
       smooth_angles="360"
       helper_size="0"
       simplify_individual_paths="false"
       simplify_just_coalesce="false"
       simplifyindividualpaths="false"
       simplifyJustCoalesce="false" />
  </defs>
  <sodipodi:namedview
     id="base"
     pagecolor="#ffffff"
     bordercolor="#666666"
     borderopacity="1.0"
     inkscape:pageopacity="0.0"
     inkscape:pageshadow="2"
     inkscape:zoom="1.540463"
     inkscape:cx="260.39288"
     inkscape:cy="170.07874"
     inkscape:document-units="mm"
     inkscape:current-layer="layer1"
     inkscape:window-width="988"
     inkscape:window-height="724"
     inkscape:window-x="33"
     inkscape:window-y="31"
     width="12.8cm"
     height="9.6cm"
     units="cm"
     showgrid="true"
     grid_units="mm"
     inkscape:object-paths="false"
     inkscape:grid-points="true"
     inkscape:grid-bbox="true"
     inkscape:guide-points="true"
     showguides="true"
     inkscape:guide-bbox="true"
     inkscape:window-maximized="0">
    <sodipodi:guide
       orientation="vertical"
       position="56.476527"
       id="guide3573" />
    <sodipodi:guide
       orientation="horizontal"
       position="11.035643"
       id="guide3579" />
    <sodipodi:guide
       orientation="horizontal"
       position="24.018753"
       id="guide3886" />
    <sodipodi:guide
       orientation="horizontal"
       position="285.62841"
       id="guide3988" />
    <sodipodi:guide
       orientation="horizontal"
       position="303.15561"
       id="guide4081" />
    <inkscape:grid
       id="GridFromPre046Settings"
       type="xygrid"
       originx="0px"
       originy="0px"
       spacingx="2mm"
       spacingy="2mm"
       color="#3f3fff"
       empcolor="#3f3fff"
       opacity="0.15"
       empopacity="0.38"
       empspacing="5" />
  </sodipodi:namedview>
  <metadata
     id="metadata7">
    <rdf:RDF>
      <cc:Work
         rdf:about="">
        <dc:format>image/svg+xml</dc:format>
        <dc:type
           rdf:resource="http://purl.org/dc/dcmitype/StillImage" />
        <dc:title></dc:title>
      </cc:Work>
    </rdf:RDF>
  </metadata>
  <g
     inkscape:label="Layer 1"
     inkscape:groupmode="layer"
     id="layer1">
    <path
       style="fill:none;stroke:#000000;stroke-width:1px;stroke-linecap:butt;stroke-linejoin:miter;stroke-opacity:1"
       inkscape:path-effect="#path-effect116"
       inkscape:original-d="M 83.149606,188.97637 C 109.29935,173.471 84.386689,135.38684 59.651002,132.85511 31.008436,132.01292 -2.8738026,117.81244 4.5440884,82.856472 4.9236656,45.702249 41.148363,24.313505 75.024911,23.630464 112.7741,12.98748 151.95915,16.93364 190.60807,16.228886 c 22.57491,0.25217 45.10069,0.72851 67.21242,-4.473743 25.84537,0.676179 55.34149,-4.9464689 76.44478,14.193013 27.03326,17.768569 47.91736,42.578723 73.78172,61.64256 20.42115,21.180174 38.58865,46.907364 38.04224,77.529004 -4.55698,33.99494 -4.59522,69.01608 -14.89768,102.06553 -9.58001,33.18163 -44.39094,45.57333 -74.1648,54.23738 -34.7621,7.95043 -71.88122,5.99269 -106.2277,-3.19124 -26.15907,-5.45867 -52.45175,-10.29846 -79.27253,-8.58423 -49.16926,0 -98.338513,0 -147.507767,0 -27.7575069,-20.04387 -9.591588,-56.26107 6.360534,-77.66579 10.249567,-21.77883 33.896236,-30.52503 52.770319,-43.005 z"
       id="path114"
       d="M 83.149606,188.97637 C 90.248123,185.11891 94.878337,177.18505 94.244788,169.03735 93.288354,156.73721 85.236694,145.92381 75.372852,139.01179 69.604164,134.96942 62.655195,133.21945 55.593396,132.64786 40.577835,131.43248 24.97623,127.10156 13.713001,116.57094 5.7099015,109.0884 1.9054863,97.545748 3.8610873,86.858304 4.9504101,80.905108 4.8865358,74.812594 6.5026842,68.898679 11.315455,51.287477 25.95814,38.079112 42.268525,30.816206 52.705068,26.168883 64.518826,26.569534 75.46735,23.506408 c 29.60144,-8.28175 60.63625,-7.630371 91.08468,-7.267114 13.83394,0.165042 27.66527,0.136227 41.50027,0.128179 16.67234,-0.0097 33.04289,-5.065618 49.76819,-4.61233 19.15615,0.519169 38.82508,-2.274882 57.49716,3.411884 7.2716,2.214638 13.27465,7.018139 19.58009,11.198863 26.6203,17.650183 51.06607,38.271643 73.14925,61.224826 15.85035,16.474804 30.58212,35.488364 35.88665,58.132534 1.97191,8.41776 2.37609,17.13743 1.3505,25.78182 -3.94901,33.28516 -4.10625,67.56085 -15.32894,99.4745 -5.59806,15.91905 -18.8735,27.79513 -33.49253,35.50221 -12.96156,6.83327 -26.79515,12.17458 -41.0671,15.30628 -34.8874,7.65537 -71.01453,3.49358 -105.82283,-3.81207 -25.91266,-5.43861 -52.2997,-8.32883 -78.93534,-8.32883 -48.87288,0 -106.270444,27.57864 -146.618647,0 C 15.384864,303.74576 9.8502934,293.71039 9.6515628,283.20914 9.364552,268.04302 16.368545,253.93062 24.018986,241.22106 c 2.697273,-4.48094 5.789332,-8.64455 8.434656,-13.17459 8.015352,-13.72606 22.085762,-22.1177 35.457735,-29.87483 5.131463,-2.97678 10.286528,-5.92344 15.238229,-9.19527 z"
       inkscape:connector-curvature="0" />
    <circle
       style="fill:#000000;stroke:none;stroke-width:0.34900001;stroke-linejoin:miter;stroke-miterlimit:4;stroke-dasharray:2.094, 2.09399999999999986;stroke-dashoffset:0;stroke-opacity:1"
       id="path126"
       cx="211.65355"
       cy="211.65353"
       r="7.5590553" />
    <path
       style="fill:none;stroke:#000000;stroke-width:1px;stroke-linecap:butt;stroke-linejoin:miter;stroke-opacity:1"
       inkscape:path-effect="#path-effect136"
       inkscape:original-d="m 45.354331,30.236211 c 7.259831,-0.110765 18.119224,5.637918 19.591134,13.402229 1.197925,-0.334643 0.381356,7.385163 0.619239,10.385556 -1.504108,7.671248 2.734933,14.101509 10.386487,16.084795 6.833705,2.778171 15.373401,8.764558 18.825509,12.333954 5.7722,5.696528 12.76956,10.414102 21.42213,15.579731 7.3607,1.405634 7.7075,8.032854 7.14071,14.281424 0.49821,9.67061 9.92909,15.76892 14.93058,23.36959 1.31494,11.20908 0.35999,22.95401 0.64915,34.40524 3.8773,8.73819 8.01246,17.72676 16.87805,21.42214 7.06556,3.60477 11.07249,11.86225 10.38648,19.57072 -1.09014,6.59361 4.19084,11.5816 9.08818,14.83452 3.41066,6.41448 14.97043,5.90436 12.98311,13.68029 -2.9197,8.94066 2.48043,15.97233 9.73733,20.07579 4.86192,3.987 8.34191,9.54535 7.14071,16.34096 -1.58061,7.38368 3.6681,12.13243 5.19325,18.71344 4.31362,5.15312 3.86688,13.87017 10.38648,16.22888 -0.0941,2.55904 0.48908,-3.33646 -1.50026,-1.02422"
       id="path134"
       d="m 45.354331,30.236211 c 6.27904,0.132171 12.112229,3.428265 16.674556,7.713731 1.694644,1.591806 2.838612,3.926949 3.277365,5.91561 0.733535,3.324765 1.013715,6.857098 0.258452,10.158444 -1.198968,5.240832 1.094823,10.939694 5.598859,13.998734 2.581676,1.753416 5.670626,2.329687 8.427954,3.774316 6.278293,3.289345 11.86635,7.708478 17.123718,12.481606 5.903845,5.36006 11.606225,12.67363 19.483595,13.743824 3.51319,0.477291 6.15315,3.378974 6.97014,6.853984 0.64446,2.74117 -0.0709,5.57681 0.24304,8.32375 0.79292,6.93736 6.5906,11.61638 10.48526,16.97518 1.62703,2.23869 4.25746,4.14358 4.54316,7.07782 1.06273,10.91478 -3.9917,22.83729 0.47884,32.82552 3.27934,7.32681 6.55282,15.62101 13.76646,19.79908 2.59036,1.50031 5.37041,2.69662 7.55447,4.85744 4.63567,4.58635 5.9329,11.36358 5.80154,17.85226 -0.10662,5.2666 3.4728,10.0687 7.84831,12.35807 1.82622,0.95552 2.63394,2.8621 4.28716,4.13971 3.06346,2.36743 7.55695,3.00389 9.66442,6.42844 1.6759,2.72327 -0.26682,5.64441 -0.3875,8.50834 -0.27035,6.41587 4.35595,11.79199 9.53069,15.04387 3.33342,2.09477 5.92065,5.38332 7.41685,9.02222 1.25488,3.05199 0.78125,6.37937 0.48102,9.59942 -0.56291,6.03727 2.95028,11.16258 5.29012,16.41727 0.79317,1.78126 2.01023,3.42236 2.80314,5.28655 1.66202,3.90755 2.00488,10.7524 6.59326,11.03972 1.24976,0.0783 1.07842,2.14109 1.10424,0.0948 0.0121,-0.9565 -0.77811,-1.67042 -1.46085,-0.60466"
       inkscape:connector-curvature="0" />
    <path
       style="fill:none;stroke:#000000;stroke-width:1px;stroke-linecap:butt;stroke-linejoin:miter;stroke-opacity:1"
       inkscape:path-effect="#path-effect141"
       inkscape:original-d="m 166.29921,204.09448 c 2.60666,-8.76716 9.59282,-14.85575 16.29763,-20.49597 3.84959,-6.83419 10.75277,-11.52148 18.7595,-10.27945 12.52152,0.58971 24.56451,-3.62371 36.77483,-5.59695 8.14001,-3.36681 15.72524,-8.40466 22.20813,-14.32535 5.52982,-6.21186 7.6366,-15.03682 15.47518,-19.19578 9.99792,-2.88147 21.0676,-0.20963 31.48707,-1.12317 9.16323,1.69573 13.92582,-10.49995 23.52135,-9.08911 6.63591,-2.32419 14.52601,5.59028 19.53682,0.76391 9.40114,-10.49545 16.33876,-23.76406 16.77629,-38.074247 1.42475,-11.892175 14.57333,-9.629648 22.93675,-12.165662 1.26973,-0.18084 2.95369,-0.747032 2.99811,1.077841"
       id="path139"
       d="m 166.29921,204.09448 c 2.38915,-8.11646 8.37783,-14.63717 15.03832,-19.43263 1.9428,-1.39879 2.8538,-3.68111 4.44416,-5.46613 3.83832,-4.30813 9.71453,-6.15057 15.57465,-5.87666 12.5305,0.5857 25.34664,-0.81638 36.77483,-5.59695 8.28309,-3.46493 16.60135,-7.82849 22.46487,-14.61842 4.88161,-5.65288 7.42661,-13.08042 13.48186,-17.84599 2.04516,-1.60957 4.73196,-1.84664 7.21991,-2.12512 8.65297,-0.96853 17.48908,-1.81025 26.00374,-0.0548 4.24128,0.87443 8.07724,-1.7328 11.26723,-4.1885 3.38586,-2.60649 7.29741,-4.26905 11.80783,-4.95688 1.9201,-0.29281 3.92342,-0.44095 5.92229,-0.0593 3.74953,0.71594 7.34309,3.01902 11.24294,2.3556 2.73203,-0.46476 4.22705,-3.03507 5.80893,-5.01722 7.82496,-9.80495 12.7099,-21.885617 13.78524,-34.533167 0.30061,-3.535619 2.40903,-6.868068 5.67824,-8.406669 5.49066,-2.58409 11.68897,-2.376632 17.50094,-3.796739 1.02748,-0.251056 2.85964,-0.487638 2.75568,1.115587"
       inkscape:connector-curvature="0" />
    <path
       style="fill:#ff0000;stroke:none;stroke-width:0.22655527;stroke-linejoin:miter;stroke-miterlimit:4;stroke-dasharray:1.35933158, 1.35933158000000009;stroke-dashoffset:0;stroke-opacity:1"
       d="m 55.076134,320.2451 c -14.44826,-1.87503 -29.396195,-8.6722 -36.400327,-16.55207 -6.192743,-6.96703 -9.0985107,-16.77395 -7.861329,-26.53186 1.646801,-12.98864 6.221689,-23.44369 19.19099,-43.85738 10.378945,-16.33647 15.958894,-21.18959 42.158857,-36.66741 16.139985,-9.53482 19.641121,-12.7276 21.81881,-19.89716 1.327932,-4.37192 1.38422,-5.18298 0.690176,-9.94481 -1.313112,-9.00922 -7.165508,-18.98398 -14.850139,-25.31039 -7.616736,-6.27052 -12.734727,-8.23339 -25.551621,-9.79967 -11.996084,-1.46597 -19.839609,-3.58552 -27.69709,-7.48457 C 12.524045,117.22767 4.3189167,105.88736 4.3315957,93.457935 4.3338058,91.291265 4.928476,85.027236 5.6530849,79.537869 7.1477524,68.214828 9.1017216,62.25557 13.555185,55.437873 c 5.68654,-8.705385 17.224286,-18.447182 27.324509,-23.071218 3.145525,-1.440069 3.848809,-1.534434 7.004138,-0.939804 4.936629,0.930322 9.886489,3.609778 13.187173,7.138476 3.508255,3.750608 4.457999,7.478086 3.866402,15.174542 -0.277425,3.609209 -0.145647,6.178974 0.401945,7.838193 1.227903,3.720584 4.693309,7.139673 8.946446,8.826871 8.024061,3.183104 14.908173,8.037884 25.775822,18.177498 6.87441,6.413891 13.0107,10.347009 16.14507,10.348346 1.78804,6.49e-4 4.70382,2.319643 5.48917,4.365463 0.38046,0.99111 0.80584,4.28505 0.9453,7.31985 0.31253,6.8011 0.84827,7.89554 8.57986,17.5272 3.33294,4.15203 6.16363,8.32961 6.37797,9.41275 0.21197,1.07111 -0.0829,6.97128 -0.65537,13.11149 -1.23623,13.26065 -0.85307,15.69506 4.05971,25.79388 3.67267,7.5496 7.44561,11.89213 13.30601,15.31479 7.62848,4.45528 10.09432,8.82334 10.97368,19.43909 0.52641,6.35502 2.40261,10.55456 5.6726,12.69715 0.98767,0.64714 3.11751,2.40482 4.73298,3.90596 1.61547,1.50114 4.39782,3.46455 6.183,4.36313 5.33437,2.68507 5.73667,3.42497 5.19422,9.55296 -0.69402,7.8402 1.50755,12.21645 8.82218,17.53667 2.81978,2.05094 5.06056,4.32024 6.2294,6.30872 1.65546,2.81632 1.85572,3.83408 2.15007,10.92735 l 0.32457,7.82177 4.05765,8.40711 c 2.2317,4.62391 4.71472,10.30589 5.51782,12.62662 1.20991,3.4963 1.8496,4.42428 3.73222,5.41423 l 2.27204,1.19471 -3.89493,-0.40859 c -16.01181,-1.67969 -28.16058,-2.39107 -41.87053,-2.45177 -18.36689,-0.0813 -21.447,0.25273 -55.50279,6.01936 -12.49624,2.11598 -26.664062,4.28645 -31.484041,4.82327 -9.283397,1.03392 -25.495307,1.17986 -32.343345,0.29116 z"
       id="path145"
       inkscape:connector-curvature="0" />
    <path
       style="fill:#00ffff;stroke:none;stroke-width:0.22655527;stroke-linejoin:miter;stroke-miterlimit:4;stroke-dasharray:1.35933158, 1.35933158000000009;stroke-dashoffset:0;stroke-opacity:1"
       d="m 164.76005,200.22182 c -1.49171,-3.72815 -5.08923,-7.41338 -9.81906,-10.05845 -5.48923,-3.06975 -8.8957,-7.10538 -12.77125,-15.13003 -4.43179,-9.1764 -4.80961,-11.75108 -3.59676,-24.5109 0.95607,-10.05842 0.77107,-14.85072 -0.64419,-16.68718 -0.34897,-0.45281 -2.89388,-3.57958 -5.65537,-6.94835 -6.91486,-8.43553 -7.67711,-10.08565 -8.1567,-17.65774 -0.34706,-5.47958 -0.61618,-6.54398 -2.1694,-8.58037 -1.21875,-1.597864 -2.63051,-2.554135 -4.51504,-3.058315 -6.0728,-1.624693 -9.15491,-3.564149 -16.30957,-10.262992 C 89.985004,76.899349 83.632986,72.360323 75.980427,69.361307 71.382594,67.55943 69.324525,65.876 67.593572,62.501145 66.593745,60.551773 66.40316,58.782981 66.474443,52.114657 66.574838,42.722977 65.976482,40.790434 61.694132,36.675437 58.68708,33.785899 52.073221,30.120809 49.865938,30.120809 c -0.824149,0 -1.091502,-0.227303 -0.707759,-0.601735 0.339183,-0.330954 5.265633,-1.369426 10.947667,-2.307715 C 65.787879,26.27307 73.967238,24.64232 78.282199,23.587471 82.59716,22.532622 88.756663,21.20863 91.969983,20.645267 108.46107,17.754029 110.91704,17.639261 166.62286,17.15672 l 53.87991,-0.466725 11.03564,-1.802087 c 10.45705,-1.707603 12.43109,-1.818055 37.65102,-2.10664 27.97549,-0.320117 34.5153,0.05458 43.26325,2.47876 6.18703,1.714516 9.606,3.528648 21.00314,11.14444 18.19088,12.155501 39.73063,29.023362 53.86854,42.184652 l 5.18188,4.823924 -7.45392,1.146104 c -11.25024,1.729819 -15.15616,3.519398 -17.47002,8.004258 -0.42107,0.816138 -1.18001,4.046277 -1.68655,7.178088 -2.08988,12.921416 -7.88281,25.555696 -15.28561,33.337656 -2.75545,2.89657 -4.18074,3.05825 -10.23373,1.16083 -7.78532,-2.44044 -14.78618,-1.12543 -22.6408,4.25275 -5.07916,3.47778 -7.91738,4.32318 -11.8689,3.53532 -6.24488,-1.24513 -24.05064,-0.42916 -29.62654,1.35768 -2.96721,0.95086 -6.1672,4.3542 -11.33176,12.05185 -2.51272,3.74515 -5.79074,8.00493 -7.28449,9.46619 -8.38647,8.204 -26.09051,15.79214 -39.76279,17.04274 -2.47449,0.22634 -8.64163,0.49132 -13.70474,0.58885 -8.88774,0.1712 -9.35235,0.24953 -13.45277,2.26816 -3.03206,1.49268 -4.83589,2.91071 -6.30517,4.95664 -1.13194,1.5762 -3.84178,4.3674 -6.02189,6.20267 -5.20807,4.3843 -8.61117,8.51565 -10.79835,13.10917 l -1.78133,3.74113 z"
       id="path149"
       inkscape:connector-curvature="0" />
    <path
       style="fill:#00ff00;stroke:none;stroke-width:0.22655527;stroke-linejoin:miter;stroke-miterlimit:4;stroke-dasharray:1.35933158, 1.35933158000000009;stroke-dashoffset:0;stroke-opacity:1"
       d="m 291.88765,323.88675 c -12.64837,-1.31302 -21.6251,-2.72024 -39.57626,-6.20408 -8.92589,-1.73228 -19.59637,-3.65032 -23.71217,-4.26231 -7.34893,-1.09273 -7.48295,-1.143 -7.46528,-2.79999 0.0151,-1.41692 -0.2714,-1.68728 -1.78796,-1.68728 -2.07973,0 -2.64592,-0.71829 -4.09354,-5.19325 -0.5775,-1.78517 -2.83178,-6.89727 -5.00951,-11.36022 l -3.95952,-8.11444 -0.37913,-8.11444 c -0.49809,-10.66026 -0.92215,-11.42138 -11.39002,-20.44278 -5.28257,-4.55262 -6.3847,-7.28705 -5.79422,-14.37568 0.43399,-5.21002 0.37688,-5.58749 -1.08217,-7.1519 -0.84719,-0.90836 -2.91512,-2.3514 -4.59541,-3.20674 -1.68028,-0.85534 -4.85742,-3.16338 -7.06032,-5.12899 -2.20289,-1.9656 -4.22079,-3.57382 -4.48422,-3.57382 -0.26344,0 -1.29438,-1.17663 -2.29099,-2.61473 -1.51656,-2.1884 -1.89204,-3.58085 -2.30282,-8.53991 -0.26995,-3.25886 -0.25057,-6.39099 0.0431,-6.96031 0.29362,-0.56933 1.36189,-2.78786 2.37393,-4.93007 1.30222,-2.75646 3.35887,-5.3585 7.0362,-8.90209 5.98593,-5.76822 6.57593,-6.36094 10.65694,-10.70618 4.20099,-4.47298 7.17197,-5.38421 17.5546,-5.38421 15.30417,0 26.75747,-2.32751 38.08971,-7.74049 12.19757,-5.82631 17.30035,-10.21033 23.92758,-20.55727 4.60899,-7.19588 7.74706,-10.50463 10.70105,-11.28307 5.40515,-1.42437 19.02732,-2.12629 25.78331,-1.32854 3.63909,0.4297 7.50959,0.58513 8.6011,0.34539 1.0915,-0.23974 3.94652,-1.77927 6.34447,-3.42118 8.0341,-5.50108 14.14681,-6.88521 20.95758,-4.74554 2.32073,0.72908 5.59302,1.32936 7.27175,1.33397 2.67708,0.007 3.34172,-0.28969 5.40736,-2.41661 7.64658,-7.87343 14.18034,-22.11283 15.88791,-34.625392 1.33603,-9.790028 3.01916,-11.106108 17.33076,-13.551324 3.85462,-0.658583 7.29538,-1.022158 7.64614,-0.807945 0.35076,0.214213 1.21948,0.432337 1.93049,0.484718 1.46275,0.107765 13.66009,12.52056 22.93077,23.335821 11.25563,13.130922 19.55734,27.138202 23.84927,40.240312 2.91699,8.90479 3.77447,15.44069 3.38668,25.81417 -0.35506,9.49786 -3.66309,44.9537 -5.70809,61.17999 -2.35702,18.70196 -6.94184,38.19249 -11.30488,48.05809 -10.29414,23.27688 -43.11868,42.08707 -85.0578,48.7426 -8.98033,1.42514 -39.23875,1.78097 -50.65635,0.59572 z M 214.667,218.73954 c 4.13129,-1.72616 5.95362,-6.75625 3.89201,-10.74296 -1.42925,-2.76387 -3.45774,-3.9021 -6.95404,-3.9021 -4.41959,0 -7.05627,2.4168 -7.47834,6.85468 -0.25087,2.63789 -0.0442,3.53769 1.16437,5.06883 1.4022,1.77648 4.5289,3.57654 6.30673,3.63081 0.45776,0.014 1.83893,-0.39519 3.06927,-0.90926 z"
       id="path151"
       inkscape:connector-curvature="0" />
    <text
       xml:space="preserve"
       style="font-style:normal;font-weight:normal;font-size:40px;line-height:1.25;font-family:sans-serif;letter-spacing:0px;word-spacing:0px;fill:#000000;fill-opacity:1;stroke:none"
       x="19.676619"
       y="83.149597"
       id="text122"><tspan
         sodipodi:role="line"
         id="tspan120"
         x="19.676619"
         y="83.149597">$\<tspan
   style="font-size:85.33333588px"
   id="tspan296">Omega</tspan>$</tspan></text>
    <text
       xml:space="preserve"
       style="font-style:normal;font-weight:normal;font-size:24px;line-height:1.25;font-family:sans-serif;letter-spacing:0px;word-spacing:0px;fill:#000000;fill-opacity:1;stroke:none"
       x="187.40398"
       y="198.62717"
       id="text130"><tspan
         sodipodi:role="line"
         id="tspan128"
         x="187.40398"
         y="198.62717">$(x_1,x_2,\ldots,x_n)$</tspan></text>
    <text
       xml:space="preserve"
       style="font-style:normal;font-weight:normal;font-size:40px;line-height:1.25;font-family:sans-serif;letter-spacing:0px;word-spacing:0px;fill:#000000;fill-opacity:1;stroke:none"
       x="45.354332"
       y="272.12598"
       id="text159"><tspan
         sodipodi:role="line"
         id="tspan157"
         x="45.354332"
         y="272.12598">гип.</tspan></text>
    <text
       xml:space="preserve"
       style="font-style:normal;font-weight:normal;font-size:40px;line-height:1.25;font-family:sans-serif;letter-spacing:0px;word-spacing:0px;fill:#000000;fill-opacity:1;stroke:none"
       x="151.18111"
       y="120.94487"
       id="text163"><tspan
         sodipodi:role="line"
         id="tspan161"
         x="151.18111"
         y="120.94487">элл.</tspan></text>
    <text
       xml:space="preserve"
       style="font-style:normal;font-weight:normal;font-size:40px;line-height:1.25;font-family:sans-serif;letter-spacing:0px;word-spacing:0px;fill:#000000;fill-opacity:1;stroke:none"
       x="249.44882"
       y="272.12598"
       id="text167"><tspan
         sodipodi:role="line"
         id="tspan165"
         x="249.44882"
         y="272.12598">пар.</tspan></text>
  </g>
</svg>
